<svg width="10" height="16" viewBox="0 0 10 16" fill="none" xmlns="http://www.w3.org/2000/svg">
<path id="Vector" d="M9.65868 5.06604C9.96218 5.36954 9.96218 5.67304 9.65868 5.97654C9.35518 6.28004 9.05167 6.28004 8.74817 5.97654L5.66257 2.94152V14.6263C5.66257 15.0647 5.44337 15.2839 5.00498 15.2839C4.56659 15.2839 4.34739 15.0647 4.34739 14.6263V2.94152L1.26179 6.02713C0.99201 6.33063 0.688508 6.31377 0.351284 5.97654C0.0477817 5.67304 0.0477817 5.36954 0.351284 5.06604L4.54973 0.918177C4.61717 0.850732 4.68462 0.800148 4.75206 0.766426C4.81951 0.732703 4.90381 0.715842 5.00498 0.715842C5.17359 0.715842 5.32534 0.783287 5.46023 0.918177L9.65868 5.06604Z" fill="white"/>
</svg>
