<svg width="19" height="18" viewBox="0 0 19 18" fill="none" xmlns="http://www.w3.org/2000/svg">
<g id="SVG">
<path id="Vector" d="M16.7445 7.78641L16.6651 7.44926H9.33709V10.5507H13.7155C13.2609 12.7093 11.1515 13.8456 9.4285 13.8456C8.17483 13.8456 6.85331 13.3182 5.97862 12.4706C5.51713 12.0163 5.14979 11.4754 4.89763 10.8789C4.64547 10.2824 4.51343 9.64197 4.50909 8.99437C4.50909 7.68797 5.0962 6.38121 5.95049 5.52164C6.80479 4.66207 8.09502 4.18113 9.37788 4.18113C10.8471 4.18113 11.9 4.96125 12.2937 5.31703L14.4977 3.12469C13.8512 2.55656 12.0751 1.125 9.30686 1.125C7.17112 1.125 5.12327 1.94309 3.62631 3.43512C2.14905 4.9043 1.3844 7.02879 1.3844 9C1.3844 10.9712 2.10792 12.9895 3.53948 14.4703C5.06913 16.0495 7.23545 16.875 9.46612 16.875C11.4957 16.875 13.4194 16.0798 14.7905 14.637C16.1384 13.2166 16.8356 11.2514 16.8356 9.19125C16.8356 8.32395 16.7484 7.80891 16.7445 7.78641Z" fill="white"/>
</g>
</svg>
