<svg width="170" height="82" viewBox="0 0 170 82" fill="none" xmlns="http://www.w3.org/2000/svg">
<path d="M94.4276 36.06H154.21C158.396 36.06 162.411 34.1997 165.372 30.8881C168.333 27.5765 169.998 23.0846 170 18.4C170 13.7136 168.336 9.21919 165.375 5.90542C162.414 2.59166 158.398 0.73 154.21 0.73H94.4276C90.2398 0.73 86.2235 2.59166 83.2623 5.90542C80.3011 9.21919 78.6375 13.7136 78.6375 18.4C78.6399 23.0846 80.3045 27.5765 83.2655 30.8881C86.2264 34.1997 90.2413 36.06 94.4276 36.06ZM15.7901 81.06H84.5085C88.6948 81.06 92.7097 79.1997 95.6706 75.8881C98.6316 72.5765 100.296 68.0846 100.299 63.4C100.299 58.7136 98.635 54.2192 95.6738 50.9054C92.7126 47.5917 88.6963 45.73 84.5085 45.73H15.7901C11.6023 45.73 7.58601 47.5917 4.6248 50.9054C1.66359 54.2192 0 58.7136 0 63.4C0.00236912 68.0846 1.66701 72.5765 4.62796 75.8881C7.58891 79.1997 11.6038 81.06 15.7901 81.06ZM9.30246 35.42H16.2726V6.92H25.298V0H0.277019V6.9H9.30246V35.42ZM34.4128 35.42H41.383V8.25H41.4724L49.5148 35.4H54.8765L63.187 8.25H63.2764V35.4H70.2465V0H59.6573L52.3297 23.1H52.2403L44.9574 0H34.4128V35.42ZM136.213 55.67C135.281 53.4947 133.895 51.6017 132.174 50.15C130.387 48.6882 128.358 47.641 126.204 47.07C123.846 46.4106 121.424 46.0748 118.993 46.07H108.538V81.47H119.931C122.22 81.4824 124.496 81.0943 126.678 80.32C128.738 79.6185 130.662 78.4925 132.352 77C133.996 75.5068 135.329 73.6297 136.257 71.5C137.261 69.1337 137.76 66.5388 137.714 63.92C137.787 61.0774 137.273 58.2543 136.213 55.67ZM129.573 68.6C129.05 69.9344 128.24 71.1027 127.214 72C126.148 72.8769 124.931 73.4966 123.64 73.82C122.175 74.1977 120.675 74.3823 119.172 74.37H115.552V53.37H119.663C121.074 53.3622 122.478 53.5742 123.836 54C125.086 54.377 126.261 55.0111 127.303 55.87C128.259 56.7113 129.034 57.7806 129.573 59C130.187 60.4061 130.493 61.9554 130.467 63.52C130.506 65.2662 130.201 67.0007 129.573 68.6ZM169.455 68.47C169.139 67.5032 168.66 66.6135 168.043 65.85C167.429 65.0907 166.696 64.4636 165.88 64C164.991 63.4974 164.034 63.1597 163.048 63V62.9C164.58 62.4075 165.952 61.4279 166.997 60.08C168.028 58.6749 168.562 56.896 168.499 55.08C168.566 53.4514 168.209 51.836 167.471 50.43C166.798 49.2837 165.875 48.3477 164.79 47.71C163.623 47.0353 162.358 46.5953 161.055 46.41C159.687 46.1914 158.308 46.0811 156.927 46.08H145.131V81.48H158.088C159.506 81.4809 160.92 81.3133 162.306 80.98C163.656 80.6776 164.949 80.1196 166.131 79.33C167.249 78.5833 168.197 77.5563 168.901 76.33C169.654 74.9185 170.027 73.2931 169.973 71.65C169.975 70.5662 169.808 69.4903 169.482 68.47H169.455ZM152.101 52.72H156.837C157.392 52.7224 157.945 52.7827 158.49 52.9C159.019 53.0064 159.531 53.1984 160.009 53.47C160.451 53.7395 160.826 54.1279 161.1 54.6C161.401 55.1453 161.551 55.7791 161.529 56.42C161.542 57.0471 161.409 57.6672 161.144 58.22C160.903 58.7055 160.56 59.1175 160.144 59.42C159.71 59.7271 159.233 59.9471 158.732 60.07C158.213 60.2066 157.682 60.2738 157.15 60.27H152.101V52.72ZM162.574 72.72C162.305 73.2417 161.932 73.6867 161.484 74.02C161.03 74.3619 160.519 74.5999 159.983 74.72C159.449 74.8546 158.903 74.9217 158.356 74.92H152.101V66.92H157.373C157.971 66.9263 158.568 66.9765 159.161 67.07C159.789 67.1666 160.405 67.3514 160.992 67.62C161.54 67.8767 162.023 68.2823 162.395 68.8C162.784 69.3736 162.983 70.0805 162.958 70.8C162.987 71.467 162.854 72.1304 162.574 72.72Z" fill="url(#paint0_linear_101_37)"/>
<defs>
<linearGradient id="paint0_linear_101_37" x1="0" y1="40.76" x2="170" y2="40.76" gradientUnits="userSpaceOnUse">
<stop stop-color="#90CEA1"/>
<stop offset="0.56" stop-color="#3CBEC9"/>
<stop offset="1" stop-color="#00B3E5"/>
</linearGradient>
</defs>
</svg>
