<svg width="19" height="14" viewBox="0 0 19 14" fill="none" xmlns="http://www.w3.org/2000/svg">
<g id="SVG" clip-path="url(#clip0_47_88)">
<path id="Vector" d="M9.46957 3.84121L9.50498 4.42512L8.9148 4.35363C6.76652 4.07955 4.88973 3.15005 3.29623 1.58897L2.51718 0.814397L2.31652 1.3864C1.89159 2.66147 2.16308 4.00804 3.04835 4.91371C3.5205 5.4142 3.41427 5.48571 2.59981 5.18778C2.31652 5.09245 2.06864 5.02096 2.04504 5.05671C1.96241 5.14012 2.2457 6.22453 2.46997 6.65352C2.77687 7.24936 3.40247 7.83327 4.08707 8.17885L4.66546 8.45294L3.98084 8.46485C3.31984 8.46485 3.29623 8.47676 3.36705 8.72701C3.60312 9.5016 4.53562 10.3238 5.57435 10.6813L6.30617 10.9316L5.66878 11.3129C4.72448 11.8611 3.61493 12.1709 2.50538 12.1947C1.97421 12.2066 1.53748 12.2543 1.53748 12.2901C1.53748 12.4092 2.97753 13.0766 3.81559 13.3387C6.32978 14.1133 9.31612 13.7797 11.5588 12.4569C13.1523 11.5155 14.7459 9.64459 15.4895 7.83327C15.8908 6.86803 16.2921 5.10438 16.2921 4.2583C16.2921 3.71013 16.3275 3.63863 16.9886 2.98322C17.378 2.60188 17.744 2.18481 17.8148 2.06564C17.9329 1.83922 17.9211 1.83922 17.3191 2.04181C16.3157 2.3993 16.1741 2.35163 16.6698 1.81539C17.0357 1.43406 17.4725 0.742897 17.4725 0.540315C17.4725 0.504565 17.2955 0.564148 17.0948 0.671398C16.8822 0.790564 16.4102 0.969313 16.056 1.07656L15.4186 1.27914L14.8403 0.885896C14.5215 0.671398 14.073 0.433066 13.837 0.361566C13.235 0.194734 12.3143 0.218567 11.7713 0.409233C10.2958 0.94548 9.36333 2.32781 9.46957 3.84121Z" fill="white"/>
</g>
<defs>
<clipPath id="clip0_47_88">
<rect width="18" height="13.5" fill="white" transform="translate(0.974976 0.25)"/>
</clipPath>
</defs>
</svg>
